<?xml version="1.0" encoding="UTF-8"?>
<svg viewBox="0 0 377 49" version="1.1" xmlns="http://www.w3.org/2000/svg" xmlns:xlink="http://www.w3.org/1999/xlink">
    <title>Shape</title>
    <g id="Splash-Page" stroke="none" stroke-width="1" fill="none" fill-rule="evenodd">
        <g id="Splash" transform="translate(-306.000000, -481.000000)" fill="#F6F6F6" fill-rule="nonzero">
            <g id="Group" transform="translate(306.126000, 481.368000)">
                <path d="M128.082,14.416 L128.082,31.12 L128.08584,32.2432 C128.09608,33.728 128.1268,35.1616 128.178,36.544 C128.242,37.856 128.41,38.816 128.682,39.424 C128.929273,39.9767273 129.328612,40.3178843 129.880017,40.4474711 L130.05,40.48 C130.175538,40.5095385 130.320675,40.5356686 130.485408,40.5583905 L130.841006,40.5992899 C130.968249,40.6114083 131.104201,40.6220118 131.248864,40.6311006 L131.708982,40.6538225 L131.708982,40.6538225 L132.221361,40.6674556 L132.221361,40.6674556 L132.786,40.672 L132.786,40.672 L133.362,40.6685917 L133.362,40.6685917 L133.878923,40.6583669 L133.878923,40.6583669 L134.336769,40.6413254 C134.479538,40.6345089 134.612462,40.6265562 134.735538,40.6174675 L135.075231,40.5867929 L135.075231,40.5867929 L135.355846,40.5493018 L135.355846,40.5493018 L135.474,40.528 L135.474,47.968 L135.191878,47.9915102 L135.191878,47.9915102 L134.839224,48.0071837 L134.839224,48.0071837 L134.416041,48.0150204 L132.786,48.016 L132.290449,48.0140408 C127.875673,47.9787755 124.680857,47.4674286 122.706,46.48 C121.65,45.968 120.818,45.28 120.21,44.416 C119.602,43.552 119.154,42.48 118.866,41.2 C118.61,40.08 118.45,38.792 118.386,37.336 L118.3635,36.761125 L118.3635,36.761125 L118.335375,35.7905313 L118.335375,35.7905313 L118.308375,34.2942813 L118.308375,34.2942813 L118.296,33.0205 L118.296,33.0205 L118.29,31.12 L118.295385,29.5870582 L118.295385,29.5870582 L118.304958,28.6302493 L118.304958,28.6302493 L118.328294,27.2927645 L118.328294,27.2927645 L118.349834,26.4662604 L118.349834,26.4662604 L118.376161,25.6918781 L118.376161,25.6918781 L118.407274,24.9696177 L118.407274,24.9696177 L118.46292,23.9839557 L118.46292,23.9839557 L118.506,23.392 L118.506,23.392 C118.65,21.6 119.01,20.096 119.586,18.88 C120.226,17.568 121.202,16.56 122.514,15.856 C123.744,15.196 125.452125,14.732875 127.638375,14.466625 L128.082,14.416 Z M39.498,14.464 L39.498,31.12 L39.50184,32.18752 C39.51208,33.60064 39.5428,34.9728 39.594,36.304 C39.658,37.584 39.906,38.544 40.338,39.184 C40.734,39.7706667 41.3383889,40.1556667 42.1511667,40.339 L42.378,40.384 C43.018,40.5211429 43.8784082,40.6093061 44.9592245,40.6484898 L45.6341633,40.6661224 L45.6341633,40.6661224 L46.362,40.672 L46.362,40.672 C48.186,40.672 49.738,40.592 51.018,40.432 C51.4568571,40.4045714 51.978,40.3418776 52.5814286,40.2439184 L52.89,40.192 L52.89,47.152 L52.3596296,47.2651852 C50.9247654,47.5559506 49.3255556,47.7582222 47.562,47.872 C46.474,47.968 45.274,48.016 43.962,48.016 C40.762,48.016 38.226,47.736 36.354,47.176 C34.482,46.616 33.066,45.68 32.106,44.368 C31.178,43.12 30.546,41.464 30.21,39.4 C30.0233333,38.2533333 29.8885185,36.8918519 29.8055556,35.3155556 L29.762,34.344 C29.7433333,33.8453333 29.7293333,33.3273333 29.72,32.79 L29.7075556,31.6895556 C29.7065185,31.5018519 29.706,31.312 29.706,31.12 L29.711625,30.007 C29.715375,29.645 29.721,29.292 29.7285,28.948 L29.756625,27.943 C29.812875,26.313 29.916,24.908 30.066,23.728 C30.306,21.84 30.746,20.256 31.386,18.976 C32.058,17.664 33.042,16.648 34.338,15.928 C35.5476,15.256 37.1265511,14.7860978 39.0748533,14.5182933 L39.498,14.464 Z M2.658,47.104 L2.658,40.096 L4.43064,40.24 L4.43064,40.24 L6.35016,40.384 L6.35016,40.384 L8.41656,40.528 C8.65432,40.544 8.8948,40.56 9.138,40.576 L11.106,40.648 L11.106,40.648 L12.1002857,40.6700408 L12.1002857,40.6700408 L12.402,40.672 L13.587,40.663 L13.587,40.663 L14.3300625,40.6444375 L14.3300625,40.6444375 L14.7560625,40.6264375 L14.7560625,40.6264375 L15.291,40.591 L15.291,40.591 L15.57825,40.56175 C15.6215,40.5565 15.6624375,40.5510625 15.7010625,40.5454375 L15.81,40.528 L15.81,48.016 L15.282,48.016 L14.32872,48.01168 C11.80456,47.98864 9.42376,47.87344 7.18632,47.66608 L5.98448521,47.5470769 L5.98448521,47.5470769 L5.28805917,47.4732308 L5.28805917,47.4732308 L4.64843787,47.3993846 L4.64843787,47.3993846 L4.0656213,47.3255385 L4.0656213,47.3255385 L3.53960947,47.2516923 L3.53960947,47.2516923 L3.07040237,47.1778462 L3.07040237,47.1778462 L2.658,47.104 Z M11.346,14.32 L11.346,23.968 L11.34792,24.20992 C11.35304,24.52224 11.3684,24.7936 11.394,25.024 C11.426,25.312 11.49,25.536 11.586,25.696 C11.682,25.888 11.842,26.024 12.066,26.104 C12.2526667,26.1706667 12.5171111,26.2206667 12.8593333,26.254 L13.074,26.272 L19.698,27.088 L20.10312,27.14704 C21.29544,27.32848 22.2804,27.5488 23.058,27.808 C23.922,28.096 24.658,28.544 25.266,29.152 C26.706,30.656 27.426,33.328 27.426,37.168 C27.426,41.232 26.53,44.08 24.738,45.712 C23.938,46.448 22.97,46.984 21.834,47.32 C20.8242222,47.6186667 19.6564198,47.8225185 18.3305926,47.9315556 L17.826,47.968 L17.826,37.888 L17.82375,37.644625 C17.81325,37.096875 17.766,36.69 17.682,36.424 C17.586,36.12 17.426,35.912 17.202,35.8 C17.006,35.702 16.6875,35.622375 16.2465,35.561125 L9.77663265,34.7719796 C6.49144898,34.349898 4.26257143,33.2285714 3.09,31.408 C2.546,30.608 2.178,29.632 1.986,28.48 C1.794,27.328 1.698,25.92 1.698,24.256 C1.698,20.704 2.61,18.144 4.434,16.576 C5.842,15.3516522 8.01122495,14.6103894 10.9416749,14.3522117 L11.346,14.32 Z M132.786,14.224 L133.31754,14.2261 C136.64558,14.2527 139.2444,14.532 141.114,15.064 C143.082,15.624 144.514,16.544 145.41,17.824 C146.242,19.008 146.762,20.56 146.97,22.48 L147.024149,23.027438 L147.024149,23.027438 L147.07314,23.6224793 L147.07314,23.6224793 L147.116975,24.265124 L147.116975,24.265124 L147.155653,24.9553719 L147.155653,24.9553719 L147.189174,25.6932231 L147.189174,25.6932231 L147.217537,26.4786777 L147.217537,26.4786777 L147.250413,27.7461157 L147.250413,27.7461157 L147.271686,29.1206612 L147.271686,29.1206612 L147.281355,30.602314 L147.281355,30.602314 L147.279607,32.1552576 L147.279607,32.1552576 L147.267042,33.6114127 L147.267042,33.6114127 L147.243706,34.9514903 L147.243706,34.9514903 L147.222166,35.7803878 L147.222166,35.7803878 L147.195839,36.5576953 L147.195839,36.5576953 L147.164726,37.2834127 L147.164726,37.2834127 L147.10908,38.2752576 L147.10908,38.2752576 L147.066,38.872 L147.066,38.872 C146.922,40.68 146.562,42.176 145.986,43.36 C145.346,44.704 144.362,45.728 143.034,46.432 C141.789,47.092 140.086969,47.5410625 137.927906,47.7791875 L137.49,47.824 L137.486229,29.0051901 L137.486229,29.0051901 L137.462268,26.4355666 L137.462268,26.4355666 L137.442,25.648 L137.442,25.648 C137.378,24.336 137.202,23.384 136.914,22.792 C136.626,22.2 136.162,21.84 135.522,21.712 C135.202,21.664 134.814,21.628 134.358,21.604 L133.77816,21.58096 C133.574,21.5752 133.35896,21.57136 133.13304,21.56944 L132.5172,21.5688533 L132.5172,21.5688533 L132.018,21.57568 L132.018,21.57568 L131.57,21.5893333 L131.57,21.5893333 L131.1732,21.6098133 C131.111333,21.6137956 131.0516,21.6180622 130.994,21.6226133 L130.674,21.6533333 L130.674,21.6533333 L130.4052,21.69088 C130.324133,21.7045333 130.2516,21.7193244 130.1876,21.7352533 L130.098,21.76 L130.098,14.272 L130.230245,14.2592653 L130.380122,14.2484898 L130.380122,14.2484898 L130.732776,14.2328163 L130.732776,14.2328163 L131.155959,14.2249796 L131.155959,14.2249796 L132.786,14.224 Z M253.794,14.608 L254.24264,14.6109867 C256.309413,14.6388622 257.999867,14.8618667 259.314,15.28 C260.722,15.728 261.81,16.416 262.578,17.344 C263.282,18.208 263.754,19.28 263.994,20.56 C264.234,21.84 264.354,23.488 264.354,25.504 C264.354,28.096 264.114,30.096 263.634,31.504 C262.999333,33.1964444 261.907975,34.4179259 260.359926,35.1684444 L260.082,35.296 L265.074,47.632 L254.994,47.632 L250.77,36.4 L248.85,36.4 L248.85,29.056 L250.482,29.056 L251.107778,29.0500741 L251.107778,29.0500741 L251.662444,29.0322963 C252.095037,29.0125432 252.453556,28.9804444 252.738,28.936 C253.25,28.856 253.65,28.704 253.938,28.48 C254.194,28.256 254.37,27.92 254.466,27.472 C254.53,27.1733333 254.572667,26.7822222 254.594,26.2986667 L254.608222,25.7842963 L254.608222,25.7842963 L254.61,25.504 C254.61,24.64 254.562,23.976 254.466,23.512 C254.37,23.048 254.194,22.704 253.938,22.48 C253.682,22.256 253.306,22.112 252.81,22.048 C252.7108,22.0352 252.6004,22.02368 252.4788,22.01344 L252.0804,21.98656 L252.0804,21.98656 L251.6148,21.96736 L251.6148,21.96736 L251.082,21.95584 C250.9876,21.95456 250.8904,21.9536 250.7904,21.95296 L248.85,21.952 L248.85,14.608 L253.794,14.608 Z M303.09,40.288 L303.09,47.632 L286.098,47.632 L291.57,40.288 L303.09,40.288 Z M301.266,23.872 L283.602,47.632 L277.266,47.632 L277.266,40.576 L289.65,23.872 L301.266,23.872 Z M376.746,40.288 L376.746,47.632 L364.554,47.632 L364.554,40.288 L376.746,40.288 Z M219.066,14.608 L219.066,47.632 L209.466,47.632 L209.466,14.608 L219.066,14.608 Z M65.634,14.608 L65.634,47.632 L56.034,47.632 L56.034,14.608 L65.634,14.608 Z M84.162,14.608 L84.162,47.632 L74.562,47.632 L74.562,34.912 L67.65,34.912 L67.65,27.232 L74.562,27.232 L74.562,14.608 L84.162,14.608 Z M98.202,14.608 L98.202,47.632 L88.602,47.632 L88.602,14.608 L98.202,14.608 Z M105.162,14.608 L105.61064,14.6109867 C107.677413,14.6388622 109.367867,14.8618667 110.682,15.28 C112.09,15.728 113.178,16.416 113.946,17.344 C114.65,18.208 115.122,19.28 115.362,20.56 C115.602,21.84 115.722,23.488 115.722,25.504 C115.722,28.096 115.482,30.096 115.002,31.504 C114.367333,33.1964444 113.275975,34.4179259 111.727926,35.1684444 L111.45,35.296 L116.442,47.632 L106.362,47.632 L102.138,36.4 L100.218,36.4 L100.218,29.056 L101.85,29.056 L102.475778,29.0500741 L102.475778,29.0500741 L103.030444,29.0322963 C103.463037,29.0125432 103.821556,28.9804444 104.106,28.936 C104.618,28.856 105.018,28.704 105.306,28.48 C105.562,28.256 105.738,27.92 105.834,27.472 C105.919333,27.0737778 105.966741,26.5112099 105.976222,25.7842963 L105.978,25.504 C105.978,24.64 105.93,23.976 105.834,23.512 C105.738,23.048 105.562,22.704 105.306,22.48 C105.05,22.256 104.674,22.112 104.178,22.048 C104.0788,22.0352 103.9684,22.02368 103.8468,22.01344 L103.4484,21.98656 L103.4484,21.98656 L102.9828,21.96736 L102.9828,21.96736 L102.45,21.95584 C102.3556,21.95456 102.2584,21.9536 102.1584,21.95296 L100.218,21.952 L100.218,14.608 L105.162,14.608 Z M174.666,40.288 L174.666,47.632 L162.474,47.632 L162.474,40.288 L174.666,40.288 Z M160.458,14.608 L160.458,47.632 L150.858,47.632 L150.858,14.608 L160.458,14.608 Z M362.538,14.608 L362.538,47.632 L352.938,47.632 L352.938,14.608 L362.538,14.608 Z M320.37,19.936 L329.49,35.536 L329.49,47.632 L320.37,47.632 L320.37,19.936 Z M188.226,14.608 L188.226,47.632 L178.626,47.632 L178.626,14.608 L188.226,14.608 Z M190.242,14.608 L191.168082,14.6097143 C192.060735,14.6154286 192.899306,14.6354286 193.683796,14.6697143 L194.599224,14.7177143 C195.488694,14.7725714 196.300286,14.848 197.034,14.944 C198.746,15.168 200.162,15.52 201.282,16 C202.37,16.48 203.234,17.136 203.874,17.968 C204.514,18.8 204.978,19.84 205.266,21.088 C205.493556,22.0835556 205.65158,23.2371358 205.740074,24.5487407 L205.785467,25.35872 L205.785467,25.35872 L205.8132,26.02048 L205.8132,26.02048 L205.8468,27.11392 L205.8468,27.11392 L205.8708,28.32832 L205.8708,28.32832 L205.8852,29.66368 L205.8852,29.66368 L205.89,31.12 L205.89,31.12 L205.8852,32.59264 L205.8852,32.59264 L205.8708,33.93856 L205.8708,33.93856 L205.8468,35.15776 L205.8468,35.15776 L205.825467,35.90016 L205.825467,35.90016 L205.785467,36.90816 L205.785467,36.90816 L205.77,37.216 C205.69,38.72 205.522,40.032 205.266,41.152 C204.978,42.4 204.514,43.44 203.874,44.272 C203.234,45.104 202.37,45.76 201.282,46.24 C200.162,46.72 198.746,47.072 197.034,47.296 C195.444286,47.504 193.48898,47.6154286 191.168082,47.6302857 L190.242,47.632 L190.242,40.288 L190.95502,40.286898 L191.571184,40.2780816 L191.571184,40.2780816 L192.13151,40.260449 L192.13151,40.260449 L192.636,40.234 C193.192,40.198 193.634,40.144 193.962,40.072 C194.618,39.928 195.106,39.584 195.426,39.04 C195.748667,38.512 195.936889,37.7016667 195.990667,36.609 L196.002,36.304 C196.066,34.704 196.098,32.976 196.098,31.12 C196.098,29.296 196.066,27.552 196.002,25.888 C195.938,24.64 195.738,23.728 195.402,23.152 C195.066,22.576 194.53,22.224 193.794,22.096 C193.392545,22.0436364 192.895884,22.0055537 192.304017,21.9817521 L191.680413,21.9627107 C191.57119,21.9603306 191.459322,21.9583471 191.34481,21.9567603 L190.242,21.952 L190.242,14.608 Z M329.97,14.608 L348.498,46.24 L348.498,47.632 L338.946,47.632 L320.37,15.952 L320.37,14.608 L329.97,14.608 Z M233.274,40.288 L233.274,47.632 L221.082,47.632 L221.082,40.288 L233.274,40.288 Z M246.834,14.608 L246.834,47.632 L237.234,47.632 L237.234,14.608 L246.834,14.608 Z M315.93,14.608 L315.93,47.632 L306.33,47.632 L306.33,14.608 L315.93,14.608 Z M348.498,14.608 L348.498,42.256 L339.378,26.656 L339.378,14.608 L348.498,14.608 Z M374.49,27.28 L374.49,34.624 L364.554,34.624 L364.554,27.28 L374.49,27.28 Z M172.41,27.28 L172.41,34.624 L162.474,34.624 L162.474,27.28 L172.41,27.28 Z M231.018,27.28 L231.018,34.624 L221.082,34.624 L221.082,27.28 L231.018,27.28 Z M14.562,14.224 L15.4402222,14.2305185 C17.7916296,14.265284 20.2188889,14.4391111 22.722,14.752 C22.978,14.7885714 23.2431429,14.8290612 23.5174286,14.8734694 L24.3677143,15.018449 C24.6602857,15.0706939 24.962,15.1268571 25.2728571,15.1869388 L25.746,15.28 L25.746,22.192 L24.7461108,22.0809751 L24.7461108,22.0809751 L23.7068643,21.977795 L23.7068643,21.977795 L22.1086371,21.8308698 L22.1086371,21.8308698 L20.5907202,21.6989695 C20.4553629,21.687446 20.3177895,21.6757895 20.178,21.664 L19.32936,21.62944 L19.32936,21.62944 L18.54984,21.60256 L18.54984,21.60256 L17.51016,21.57664 L17.51016,21.57664 L16.90344,21.56896 L16.90344,21.56896 L16.626,21.568 C15.7044,21.568 14.82376,21.58848 13.98408,21.62944 L13.362,21.664 L13.362,14.224 L14.562,14.224 Z M43.962,14.224 L44.76375,14.2315 C46.62925,14.2665 48.458,14.424 50.25,14.704 C50.4846667,14.7395556 50.7074815,14.7751111 50.9184444,14.8106667 L51.5157778,14.9173333 C51.6094074,14.9351111 51.7000741,14.9528889 51.7877778,14.9706667 L52.2784444,15.0773333 C52.3542963,15.0951111 52.4271852,15.1128889 52.4971111,15.1306667 L52.698,15.184 L52.698,22.048 L52.2338678,22.0111074 L52.2338678,22.0111074 L51.1429587,21.9020165 L51.1429587,21.9020165 L50.298,21.808 L50.298,21.808 C48.794,21.648 47.482,21.568 46.362,21.568 L45.64296,21.5728 C45.52808,21.5744 45.41568,21.5764 45.30576,21.5788 L44.676,21.598 L44.676,21.598 L44.10576,21.6268 C43.83552,21.6436 43.5876,21.664 43.362,21.688 C42.7174286,21.7565714 42.1727755,21.8662857 41.7280408,22.0171429 L41.514,22.096 L41.514,14.272 L41.6325306,14.2592653 C41.7174286,14.2514286 41.8140816,14.244898 41.9224898,14.2396735 L42.2829796,14.2279184 C42.3489388,14.2266122 42.4178367,14.2256327 42.4896735,14.2249796 L43.962,14.224 Z M233.274,14.608 L233.274,21.952 L221.082,21.952 L221.082,14.608 L233.274,14.608 Z M303.09,14.608 L303.09,21.424 L302.706,21.952 L277.794,21.952 L277.794,14.608 L303.09,14.608 Z M174.666,14.608 L174.666,21.952 L162.474,21.952 L162.474,14.608 L174.666,14.608 Z M376.746,14.608 L376.746,21.952 L364.554,21.952 L364.554,14.608 L376.746,14.608 Z M5.334,2.8 L5.334,9.632 L2.534,9.632 L2.534,2.8 L5.334,2.8 Z M11.193,1.76747506e-13 L11.193,9.632 L8.393,9.632 L8.393,1.76747506e-13 L11.193,1.76747506e-13 Z M16.597,1.76747506e-13 L16.597,9.632 L13.797,9.632 L13.797,5.922 L11.781,5.922 L11.781,3.682 L13.797,3.682 L13.797,1.76747506e-13 L16.597,1.76747506e-13 Z M20.692,1.76747506e-13 L20.692,9.632 L17.892,9.632 L17.892,1.76747506e-13 L20.692,1.76747506e-13 Z M24.836,7.49 L24.836,9.632 L21.28,9.632 L21.28,7.49 L24.836,7.49 Z M24.178,3.696 L24.178,5.838 L21.28,5.838 L21.28,3.696 L24.178,3.696 Z M7.882,1.76747506e-13 L7.882,2.24 L7.10542736e-15,2.24 L7.10542736e-15,1.76747506e-13 L7.882,1.76747506e-13 Z M24.836,1.76747506e-13 L24.836,2.142 L21.28,2.142 L21.28,1.76747506e-13 L24.836,1.76747506e-13 Z" id="Shape"></path>
            </g>
        </g>
    </g>
</svg>